<?xml version="1.0" encoding="iso-8859-1"?>
<!-- Generator: Adobe Illustrator 19.0.0, SVG Export Plug-In . SVG Version: 6.00 Build 0)  -->
<svg version="1.1" id="Layer_1" xmlns="http://www.w3.org/2000/svg" xmlns:xlink="http://www.w3.org/1999/xlink" x="0px" y="0px"
	 viewBox="0 0 511.998 511.998" style="enable-background:new 0 0 511.998 511.998;" xml:space="preserve">
<g>
	<g>
		<g>
			<path d="M110.305,59.572c0,11.66,9.487,21.147,21.148,21.147c11.661,0,21.148-9.487,21.148-21.147
				c0-11.661-9.487-21.148-21.148-21.148S110.305,47.911,110.305,59.572z M136.447,59.572c0,2.753-2.24,4.993-4.994,4.993
				s-4.994-2.24-4.994-4.993c0-2.754,2.24-4.994,4.994-4.994S136.447,56.818,136.447,59.572z"/>
			<path d="M384.257,261.223c-0.997,0.927-2.006,1.842-3.029,2.742c-3.348,2.947-3.674,8.051-0.727,11.4
				c1.597,1.814,3.828,2.741,6.068,2.741c1.896,0,3.798-0.663,5.333-2.014c1.136-0.999,2.257-2.014,3.363-3.045
				c3.265-3.039,3.447-8.15,0.408-11.416S387.523,258.184,384.257,261.223z"/>
			<path d="M364.397,276.741c-23.516,15.3-50.848,23.387-79.037,23.387c-17.253,0-34.16-3.016-50.273-8.965
				c-0.321-0.173-0.654-0.327-0.999-0.459c-10.408-3.944-19.734-10.536-26.974-19.064c-2.887-3.402-7.985-3.819-11.385-0.931
				c-3.401,2.886-3.818,7.984-0.93,11.385c8.74,10.297,19.936,18.328,32.436,23.28c0.349,0.196,0.715,0.367,1.095,0.51
				c18.258,6.9,37.445,10.398,57.029,10.398c31.326,0,61.702-8.992,87.847-26c3.74-2.434,4.799-7.436,2.365-11.176
				C373.14,275.367,368.135,274.311,364.397,276.741z"/>
			<path d="M507.538,182.59c-2.665-1.716-6.09-1.711-8.754,0.009c-8.173,5.28-16.611,10.041-25.214,14.241
				c0.353-1.712,0.69-3.429,0.997-5.153c0.554-3.108-0.756-6.254-3.35-8.052c-2.594-1.797-5.999-1.919-8.716-0.312
				c-20.625,12.209-44.239,18.663-68.288,18.663c-5.669,0-11.505-0.382-17.356-1.139c-1.396-0.346-3.025-0.584-4.945-0.722
				c-6.949-1.165-13.893-2.913-20.653-5.197c-7.737-3.106-16.25-7.513-25.31-13.101c-7.704-4.752-13.934-9.226-17.017-11.513
				c-0.897-0.705-1.813-1.4-2.723-2.068c-0.229-0.186-0.467-0.359-0.71-0.516c-16.868-12.144-36.758-18.56-57.553-18.56
				c-16.231,0-31.558,3.941-45.078,10.912c-0.047,0.024-0.097,0.041-0.144,0.066c-0.504,0.261-1,0.534-1.5,0.803
				c-0.121,0.065-0.242,0.128-0.362,0.194c-0.627,0.341-1.248,0.69-1.867,1.046c-0.08,0.045-0.158,0.091-0.238,0.136
				c-5.382,3.103-10.486,6.711-15.223,10.793l-0.21,0.181c-0.444,0.384-0.87,0.797-1.309,1.191
				c-0.268,0.241-0.535,0.485-0.801,0.729c-0.892,0.82-1.764,1.652-2.626,2.504c-0.254,0.251-0.506,0.503-0.757,0.757
				c-0.419,0.424-0.855,0.835-1.264,1.264l-0.505,0.53c-0.668,0.71-1.327,1.427-1.974,2.156l-0.378,0.435
				c-1.146,1.31-2.282,2.677-3.381,4.074l-0.209,0.265c-0.174,0.22-0.348,0.439-0.506,0.646c-0.515,0.67-1.018,1.348-1.519,2.037
				c-0.283,0.388-0.561,0.783-0.894,1.257c-0.334,0.473-0.645,0.955-0.97,1.436c-0.064,0.094-0.127,0.188-0.191,0.282
				c-0.308,0.457-0.629,0.911-0.924,1.367l-0.148,0.227c-0.336,0.516-0.671,1.032-0.994,1.554c-0.374,0.604-0.736,1.216-1.092,1.821
				c-0.354,0.601-0.7,1.205-1.049,1.823l-0.162,0.288c-0.272,0.484-0.544,0.968-0.798,1.446c-0.579,1.082-1.142,2.177-1.679,3.276
				c-0.184,0.377-0.36,0.757-0.535,1.138l-0.167,0.363c-0.153,0.325-0.296,0.658-0.446,0.985c-0.042,0.094-0.085,0.187-0.127,0.281
				c-0.17,0.377-0.346,0.75-0.512,1.133c-0.226,0.519-0.45,1.039-0.666,1.558c-0.154,0.37-0.293,0.748-0.442,1.121
				c-0.133,0.33-0.262,0.66-0.391,0.992c-0.142,0.366-0.295,0.729-0.432,1.097c-0.154,0.412-0.304,0.825-0.45,1.233
				c-0.099,0.275-0.185,0.557-0.281,0.832c-0.208,0.597-0.41,1.195-0.607,1.797c-0.074,0.228-0.157,0.451-0.23,0.682
				c-0.058,0.182-0.112,0.364-0.169,0.546c-0.031,0.1-0.061,0.2-0.093,0.3c-0.056,0.183-0.114,0.367-0.17,0.549
				c-0.042,0.139-0.079,0.282-0.12,0.422c-0.251,0.841-0.491,1.687-0.719,2.537c-0.02,0.074-0.043,0.146-0.062,0.222l-0.082,0.297
				c-0.064,0.23-0.127,0.462-0.185,0.691c-0.178,0.697-0.351,1.419-0.52,2.158c-0.001,0.003-0.001,0.006-0.002,0.011
				c-0.146,0.64-0.291,1.289-0.429,1.953c-0.011,0.053-0.021,0.104-0.031,0.157c-0.671,3.224-1.185,6.506-1.533,9.836
				c-0.001,0.008-0.002,0.014-0.002,0.022c0,0,0,0,0,0.001c-0.283,2.718-0.452,5.47-0.508,8.25
				c-0.017,0.709-0.026,1.381-0.026,2.033c0,1.032,0.02,2.116,0.062,3.28c0.014,0.418,0.032,0.836,0.051,1.254
				c0.001,0.013,0.001,0.025,0.001,0.038c0.016,0.351,0.037,0.701,0.059,1.052l0.017,0.282c0.065,1.097,0.146,2.192,0.248,3.283
				c0.001,0.014,0.002,0.027,0.003,0.041l0.018,0.185c0.004,0.051,0.01,0.101,0.015,0.151c0.324,3.376,0.813,6.719,1.477,10.019
				c0,0.002,0.001,0.005,0.001,0.008c0.006,0.029,0.013,0.059,0.019,0.088c2.292,11.343,6.576,22.174,12.714,32.098
				c0.029,0.046,0.058,0.094,0.087,0.14c0.572,0.922,1.159,1.835,1.763,2.741c0.014,0.02,0.027,0.043,0.041,0.063l0.143,0.213
				c0.023,0.033,0.047,0.066,0.07,0.099c0.37,0.549,0.73,1.105,1.113,1.649c10.078,14.332,23.579,25.578,39.319,32.858
				c0.361,0.168,0.723,0.335,1.086,0.498c0.464,0.208,0.929,0.416,1.398,0.617c0.908,0.392,1.819,0.773,2.738,1.136
				c0.019,0.008,0.038,0.016,0.056,0.024c0.377,0.218,0.773,0.407,1.187,0.562c22.125,8.363,45.379,12.603,69.116,12.603
				c1.425,0,2.845-0.017,4.265-0.047c0.137-0.003,0.274-0.009,0.411-0.012c39.04-0.906,76.116-13.145,107.888-35.592
				c0.051-0.036,0.101-0.072,0.152-0.109c0.993-0.702,1.981-1.414,2.963-2.137c0.338-0.248,0.674-0.499,1.01-0.75
				c0.391-0.292,0.785-0.576,1.175-0.87c0.336-0.254,0.667-0.516,1-0.773c0.431-0.33,0.859-0.661,1.287-0.994
				c0.559-0.436,1.114-0.877,1.667-1.318c0.573-0.458,1.146-0.915,1.715-1.38c0.292-0.239,0.582-0.481,0.872-0.722
				c0.616-0.508,1.236-1.011,1.847-1.528c22.235-18.826,39.862-42.297,51.766-68.439c0.084-0.183,0.166-0.366,0.249-0.549
				c0.392-0.867,0.779-1.737,1.158-2.609c0.224-0.514,0.443-1.029,0.661-1.543c0.256-0.605,0.514-1.209,0.765-1.817
				c0.385-0.928,0.758-1.862,1.128-2.796c0.094-0.237,0.191-0.473,0.283-0.71c1.437-3.677,2.766-7.396,3.972-11.155
				c8.165-3.447,16.227-7.375,24.114-11.744c-7.921,44.264-20.163,79.809-37.25,108.282c-0.067,0.11-0.129,0.221-0.19,0.334
				c-32.884,61.197-92.982,101.813-160.75,110.164c-1.733,0.212-3.471,0.406-5.214,0.576c-0.443,0.043-0.885,0.084-1.329,0.125
				c-1.894,0.172-3.792,0.325-5.692,0.448c-0.29,0.018-0.579,0.034-0.869,0.052c-2.016,0.122-4.033,0.221-6.05,0.285
				c-0.177,0.005-0.354,0.009-0.531,0.014c-2.124,0.064-4.246,0.101-6.365,0.101c-8.865,0-17.86-0.566-26.741-1.684
				c-0.762-0.096-1.523-0.073-2.262,0.043c-42.816-4.959-80.481-21.247-114.464-49.407c-44.802-39.122-49.639-83.656-49.639-100.995
				c0-15.259,4.718-47.242,22.402-70.32c2.01-2.626,3.974-5.168,5.887-7.646c17.917-23.21,32.07-41.542,39.218-67.501
				c0.68-2.466,0.151-5.108-1.426-7.123c-1.577-2.014-3.977-3.192-6.573-3.095c-8.529,0.227-16.617-0.803-23.932-2.879
				c-0.004-0.001-0.008-0.003-0.011-0.004c-0.718-0.201-1.425-0.417-2.127-0.639c-0.278-0.088-0.554-0.179-0.828-0.269
				c-0.393-0.129-0.782-0.263-1.17-0.398c-0.54-0.191-1.077-0.384-1.607-0.587c-0.097-0.037-0.194-0.074-0.291-0.112
				c-14.529-5.638-25.102-15.761-28.407-28.476c-3.203-12.317,0.435-25.791,10.243-37.942c10.375-12.856,26.223-22.57,44.622-27.352
				c18.401-4.781,36.973-4.015,52.298,2.161c14.484,5.837,24.223,15.835,27.425,28.153c1.703,6.552,1.477,13.422-0.672,20.417
				c-0.02,0.071-0.042,0.144-0.062,0.216c-0.104,0.374-10.385,37.724-13.193,67.462l-0.252,2.309
				c-0.484,4.434,2.718,8.422,7.154,8.906c4.425,0.489,8.421-2.718,8.905-7.154l0.258-2.37c0.004-0.039,0.009-0.079,0.012-0.118
				c2.601-27.618,12.081-62.525,12.656-64.625c3.006-9.858,3.285-19.651,0.827-29.105c-4.521-17.396-17.669-31.273-37.021-39.072
				c-18.512-7.46-40.672-8.46-62.4-2.812c-21.728,5.645-40.595,17.308-53.131,32.839c-13.103,16.235-17.83,34.757-13.306,52.154
				c0.778,2.991,1.818,5.866,3.087,8.622c-11.726,8.338-32.023,21.328-56.627,26.974c-3.363,0.771-5.865,3.595-6.226,7.027
				c-0.361,3.432,1.499,6.714,4.629,8.169c0.736,0.341,18.298,8.37,43.769,8.37c0.001,0,0,0,0.001,0
				c21.23,0,41.519-5.469,60.36-16.243c4.53,1.073,9.267,1.823,14.175,2.223c-6.944,18.037-18.302,32.747-33.166,52.001
				c-1.926,2.494-3.901,5.053-5.923,7.694c-25.01,32.642-25.733,75.381-25.733,80.146c0,14.09,2.344,28.349,6.966,42.382
				c8.813,26.756,25.057,50.592,48.28,70.848c0.051,0.044,0.102,0.087,0.154,0.13c35.932,29.796,75.67,47.22,120.726,52.826
				l16.405,37.212c1.29,2.929,4.19,4.819,7.39,4.819h6.479v12.997l-22.951-8.038c-2.342-0.823-4.934-0.518-7.025,0.821
				l-14.889,9.532c-3.756,2.405-4.853,7.401-2.447,11.157c1.542,2.408,4.148,3.723,6.81,3.723c1.491,0,2.999-0.412,4.348-1.276
				l11.576-7.412l23.502,8.232c0.858,0.3,1.762,0.454,2.67,0.454h29.79c4.462,0,8.077-3.615,8.077-8.077s-3.615-8.077-8.077-8.077
				h-15.23v-14.036h9.246c4.064,0,7.497-3.021,8.013-7.053l4.561-35.677c69.963-10.856,131.567-53.775,165.823-117.402
				c20.289-33.873,34.046-76.765,42.054-131.115C511.621,187.425,510.205,184.307,507.538,182.59z M454.069,208.368
				c-0.033,0.098-0.075,0.193-0.106,0.292c-22.505,75.376-93.194,128.022-171.902,128.022c-21.37,0.003-42.306-3.739-62.253-11.124
				c-0.351-0.198-0.719-0.37-1.102-0.516c-1.244-0.472-2.474-0.983-3.695-1.517c-0.285-0.125-0.568-0.254-0.852-0.381
				c-1.081-0.488-2.154-0.995-3.216-1.53c-0.13-0.066-0.264-0.128-0.394-0.195c-1.259-0.644-2.505-1.318-3.732-2.028
				c-0.047-0.027-0.094-0.056-0.14-0.084c-1.118-0.648-2.219-1.33-3.306-2.031c-0.22-0.142-0.439-0.282-0.658-0.427
				c-1.039-0.684-2.065-1.39-3.073-2.119c-0.326-0.237-0.646-0.482-0.968-0.724c-0.693-0.516-1.375-1.044-2.051-1.581
				c-0.633-0.506-1.26-1.021-1.877-1.545c-0.159-0.135-0.317-0.272-0.476-0.408c-15.421-13.297-25.682-32.065-28.229-52.598
				c-0.029-0.238-0.064-0.475-0.09-0.713c-0.079-0.681-0.139-1.364-0.2-2.048c-0.06-0.69-0.114-1.382-0.157-2.076
				c-0.032-0.503-0.066-1.006-0.088-1.51c-0.013-0.294-0.026-0.584-0.036-0.864c-0.032-0.934-0.055-1.869-0.055-2.808
				c0-1.264,0.039-2.519,0.096-3.769c0-0.01,0.001-0.018,0.001-0.028l0.054-1.013c0.062-1.079,0.142-2.154,0.246-3.221l0.045-0.514
				c0.132-1.285,0.296-2.56,0.488-3.826l0.089-0.549c0.182-1.154,0.387-2.302,0.616-3.441l0.072-0.367
				c3.292-15.93,11.193-30.192,22.237-41.335c0.177-0.179,0.354-0.356,0.533-0.533c0.761-0.755,1.538-1.495,2.328-2.22
				c0.174-0.159,0.348-0.318,0.522-0.475c3.829-3.452,7.976-6.555,12.4-9.25c0.025-0.015,0.05-0.03,0.074-0.045
				c1.103-0.67,2.223-1.314,3.358-1.933c0.061-0.033,0.124-0.066,0.185-0.099c11.666-6.321,25.016-9.916,39.191-9.916
				c17.517,0,34.266,5.447,48.437,15.751c0.036,0.026,0.072,0.054,0.109,0.08c0.858,0.624,1.703,1.265,2.532,1.918
				c0.061,0.048,0.123,0.096,0.185,0.142c3.98,2.956,10.38,7.502,18.26,12.362c9.926,6.124,19.345,10.979,27.996,14.433
				c0.131,0.052,0.264,0.101,0.396,0.146c7.781,2.643,15.788,4.651,23.802,5.972c0.267,0.044,0.535,0.074,0.806,0.092
				c1.758,0.111,2.449,0.292,2.571,0.326c0.39,0.113,0.787,0.197,1.189,0.25c6.722,0.893,13.446,1.345,19.986,1.345
				c20.982,0,41.673-4.386,60.719-12.791C454.658,206.358,454.365,207.364,454.069,208.368z M49.193,131.614
				c-4.183,0-8.119-0.252-11.753-0.661c14.839-6.535,26.91-14.415,35.128-20.243c4.548,5.061,10.089,9.426,16.441,12.962
				C76.3,128.949,62.965,131.614,49.193,131.614z M283.598,465.651h-19.502L253.4,441.386c3.86,0.203,7.758,0.324,11.695,0.366
				c0.572,0.008,1.145,0.013,1.717,0.016c0.452,0.002,0.901,0.013,1.355,0.013c0.414,0,0.826-0.009,1.24-0.011
				c0.47-0.002,0.94-0.006,1.41-0.012c0.882-0.011,1.762-0.026,2.643-0.045c0.49-0.011,0.98-0.024,1.469-0.038
				c0.867-0.025,1.732-0.057,2.598-0.091c0.497-0.021,0.994-0.04,1.491-0.064c0.852-0.04,1.702-0.087,2.551-0.137
				c0.517-0.03,1.035-0.059,1.552-0.093c0.788-0.052,1.575-0.11,2.362-0.169c0.42-0.033,0.843-0.058,1.266-0.093L283.598,465.651z"
				/>
		</g>
	</g>
</g>
<g>
</g>
<g>
</g>
<g>
</g>
<g>
</g>
<g>
</g>
<g>
</g>
<g>
</g>
<g>
</g>
<g>
</g>
<g>
</g>
<g>
</g>
<g>
</g>
<g>
</g>
<g>
</g>
<g>
</g>
</svg>
