<?xml version="1.0" encoding="iso-8859-1"?>
<!-- Generator: Adobe Illustrator 19.0.0, SVG Export Plug-In . SVG Version: 6.00 Build 0)  -->
<svg version="1.1" id="Capa_1" xmlns="http://www.w3.org/2000/svg" xmlns:xlink="http://www.w3.org/1999/xlink" x="0px" y="0px"
	 viewBox="0 0 466 466" style="enable-background:new 0 0 466 466;" xml:space="preserve">
<g>
	<path d="M464.034,99.037c-10.461-12.016-27.985-18.906-48.078-18.906c-11.04,0-22.217,2.012-33.221,5.98
		c-18.739,6.758-34.499,18.466-44.196,32.646c-1.258-0.386-2.522-0.766-3.792-1.143c0.862-3.421,1.296-6.946,1.296-10.551
		c0-23.824-19.382-43.206-43.205-43.206c-5.86,0-11.608,1.183-16.936,3.457C264.899,55.468,249.316,48.563,233,48.563
		s-31.899,6.904-42.901,18.751c-5.327-2.274-11.076-3.457-16.936-3.457c-23.823,0-43.205,19.382-43.205,43.206
		c0,3.619,0.438,7.16,1.307,10.594c-1.265,0.375-2.525,0.755-3.777,1.139c-9.694-14.197-25.464-25.92-44.223-32.685
		c-11.004-3.969-22.182-5.98-33.221-5.98c-20.093,0-37.617,6.891-48.078,18.906c-1.312,1.506-2.012,3.449-1.964,5.446
		c0.605,25.091,22.948,50.521,54.335,61.84c10.967,3.955,22.112,5.961,33.125,5.961c5.365,0,10.545-0.48,15.49-1.434
		c3.405,35.222,11.562,111.508,26.346,156.103c22.115,66.713,68.109,90.483,103.779,90.483s81.664-23.771,103.779-90.483
		c14.778-44.581,22.938-120.87,26.343-156.073c4.899,0.934,10.029,1.404,15.339,1.404c0.001,0,0.001,0,0.003,0
		c11.011,0,22.156-2.006,33.122-5.961c31.387-11.318,53.731-36.748,54.336-61.84C466.046,102.486,465.345,100.543,464.034,99.037z
		 M406.233,151.272c-9.22,3.325-18.538,5.012-27.694,5.012c0,0-0.001,0-0.001,0c-7.158,0-13.829-1.04-19.826-3.09
		c-2.32-0.793-4.873-0.479-6.93,0.852c-2.058,1.33-3.393,3.529-3.623,5.969c-0.593,6.3-1.457,15.469-2.614,26.431l-54.457,19.933
		c-3.153,1.154-5.25,4.155-5.25,7.513v35.685c0,4.418,3.582,8,8,8s8-3.582,8-8v-30.094l41.738-15.277
		c-4.361,37.424-11.453,86.172-21.909,117.713c-19.435,58.629-58.506,79.519-88.591,79.519s-69.157-20.89-88.591-79.519
		c-10.453-31.53-17.542-80.234-21.904-117.655l41.579,15.219v30.094c0,4.418,3.582,8,8,8s8-3.582,8-8v-35.685
		c0-3.357-2.097-6.358-5.25-7.513l-54.298-19.875c-1.161-11.011-2.029-20.219-2.624-26.541c-0.23-2.443-1.569-4.646-3.631-5.975
		c-1.308-0.843-2.815-1.275-4.334-1.275c-0.877,0-1.758,0.145-2.608,0.438c-6.03,2.079-12.743,3.134-19.953,3.134
		c-9.028,0-18.605-1.733-27.697-5.012c-23.888-8.615-41.258-26.367-43.525-44.004c7.667-7.113,19.772-11.138,33.804-11.138
		c9.054,0,18.665,1.739,27.793,5.031c17.572,6.337,31.814,17.622,39.075,30.962c1.839,3.379,5.823,4.972,9.486,3.787
		c5.656-1.827,11.541-3.584,17.488-5.223c2.316-0.638,4.222-2.282,5.193-4.479c0.971-2.197,0.903-4.714-0.185-6.855
		c-1.949-3.839-2.938-7.974-2.938-12.29c0-15.002,12.204-27.206,27.205-27.206c5.208,0,10.274,1.483,14.651,4.289
		c3.565,2.287,8.297,1.396,10.79-2.031c7.987-10.99,20.845-17.552,34.396-17.552s26.41,6.562,34.396,17.552
		c2.492,3.428,7.224,4.319,10.79,2.031c4.377-2.806,9.443-4.289,14.651-4.289c15.001,0,27.205,12.204,27.205,27.206
		c0,4.306-0.983,8.431-2.923,12.262c-1.084,2.142-1.149,4.657-0.177,6.853c0.972,2.195,2.878,3.838,5.193,4.475
		c5.938,1.633,11.822,3.389,17.492,5.217c3.659,1.181,7.639-0.407,9.479-3.782c7.268-13.322,21.503-24.594,39.056-30.925
		c9.128-3.292,18.739-5.031,27.793-5.031c14.031,0,26.137,4.024,33.804,11.138C447.493,124.905,430.121,142.657,406.233,151.272z" fill="#fff"/>
	<path d="M253.062,304.459L233,317.512l-20.062-13.053c-3.703-2.408-8.66-1.36-11.068,2.344c-2.41,3.703-1.361,8.658,2.343,11.068
		L225,331.395v19.729h-12.011c-4.418,0-8,3.582-8,8s3.582,8,8,8h40.022c4.418,0,8-3.582,8-8s-3.582-8-8-8H241v-19.729l20.788-13.524
		c3.704-2.41,4.752-7.365,2.343-11.068C261.722,303.099,256.766,302.051,253.062,304.459z" fill="#fff"/>
	<path d="M292.837,134.268c-5.208,0-10.274-1.483-14.651-4.289c-3.567-2.287-8.299-1.396-10.79,2.031
		c-7.987,10.991-20.846,17.553-34.396,17.553s-26.409-6.562-34.396-17.553c-2.491-3.426-7.223-4.317-10.79-2.031
		c-4.376,2.806-9.443,4.289-14.651,4.289c-4.418,0-8,3.582-8,8s3.582,8,8,8c5.86,0,11.608-1.183,16.936-3.457
		c11.003,11.848,26.585,18.752,42.901,18.752s31.898-6.904,42.901-18.752c5.327,2.274,11.075,3.457,16.936,3.457
		c4.418,0,8-3.582,8-8S297.255,134.268,292.837,134.268z" fill="#fff"/>
</g>
<g>
</g>
<g>
</g>
<g>
</g>
<g>
</g>
<g>
</g>
<g>
</g>
<g>
</g>
<g>
</g>
<g>
</g>
<g>
</g>
<g>
</g>
<g>
</g>
<g>
</g>
<g>
</g>
<g>
</g>
</svg>
