<?xml version="1.0" encoding="iso-8859-1"?>
<!-- Generator: Adobe Illustrator 19.0.0, SVG Export Plug-In . SVG Version: 6.00 Build 0)  -->
<svg xmlns="http://www.w3.org/2000/svg" xmlns:xlink="http://www.w3.org/1999/xlink" version="1.1" id="Layer_1" x="0px" y="0px" viewBox="0 0 512 512" style="enable-background:new 0 0 512 512;" xml:space="preserve" width="512px" height="512px">
<g>
	<g>
		<g>
			<path d="M371.043,239.932c12.854,0,23.312-10.459,23.312-23.314c0-12.855-10.458-23.314-23.312-23.314     c-12.856,0-23.315,10.459-23.315,23.314C347.728,229.473,358.187,239.932,371.043,239.932z M371.043,209.181     c4.099,0,7.433,3.336,7.433,7.435c0,4.1-3.335,7.435-7.433,7.435c-4.101,0-7.437-3.336-7.437-7.435     C363.606,212.517,366.943,209.181,371.043,209.181z" fill="#fff"/>
			<path d="M473.666,294.431c1.307-2.707,2.061-5.729,2.061-8.931v-51.807c0-11.279-9.095-20.461-20.335-20.626     c-20.616-44.052-62.32-73.912-110.644-79.156l-9.901-17.427c-5.564-9.79-13.798-15.404-22.591-15.404     c-8.794,0-17.027,5.616-22.589,15.406l-9.429,16.594h-103.3c-36.84,0-70.371,14.419-95.262,37.902     c-3.898-10.32-13.875-17.68-25.542-17.68c-3.068,0-6.019,0.508-8.773,1.446c-2.754-0.938-5.706-1.446-8.773-1.446     c-15.051,0-27.295,12.245-27.295,27.295c0,4.386,3.555,7.939,7.939,7.939s7.939-3.554,7.939-7.939     c0-2.786,1.003-5.342,2.667-7.325c-0.65,2.332-0.998,4.789-0.998,7.325v12.195c0,10.212,8.309,18.522,18.522,18.522     c1.725,0,3.391-0.255,4.976-0.699c-9.163,18.522-14.324,39.362-14.324,61.388c0,11.385,1.405,22.705,4.143,33.691     c-1.327,6.014-2.048,12.253-2.048,18.661c0,0.598,0.006,1.198,0.02,1.799C17.8,327.345,0,345.887,0,368.508     c0,17.069,10.031,32.153,25.378,38.848c1.421,2.148,3.855,3.566,6.623,3.566h295.186c3.339,0,6.618-0.398,9.816-1.159     c1.202,0.73,2.607,1.159,4.116,1.159h116.315c1.143,0,2.227-0.247,3.21-0.682C490.083,405.861,512,380.631,512,350.59     C512,325.085,496.082,303.242,473.666,294.431z M50.003,192.79c0,1.458-1.186,2.643-2.643,2.643     c-1.457,0-2.643-1.186-2.643-2.643v-12.195c0-2.772,0.993-5.318,2.643-7.298c1.65,1.98,2.643,4.524,2.643,7.298V192.79z      M441.901,228.929h13.185c2.581,0,4.763,2.182,4.763,4.764v51.807c0,2.581-2.182,4.761-4.763,4.761h-13.185     c-2.582,0-4.763-2.181-4.763-4.761v-51.807C437.138,231.111,439.319,228.929,441.901,228.929z M290.128,147.948     c0.258-0.539,0.541-1.085,0.855-1.64l0.776-1.366c0.001-0.002,0.002-0.004,0.003-0.007l11.708-20.606     c2.622-4.614,5.906-7.371,8.784-7.371s6.163,2.757,8.785,7.371l11.94,21.014l0.547,0.962c1.675,2.947,2.557,5.703,2.608,8     c0.02,0.919-0.092,1.765-0.341,2.522c-0.125,0.378-0.283,0.734-0.475,1.065c-1.54,2.646-5.534,4.164-10.957,4.164h-24.213     c-1.356,0-2.622-0.095-3.783-0.278c-3.484-0.55-6.018-1.901-7.174-3.886c-0.385-0.662-0.633-1.422-0.746-2.263     C288.158,153.498,288.736,150.846,290.128,147.948z M67.55,180.595v5.859c-0.563,0.719-1.119,1.445-1.668,2.174v-8.034     c0-2.536-0.348-4.993-0.998-7.325C66.548,175.254,67.55,177.81,67.55,180.595z M25.56,389.02     c-6.011-4.923-9.682-12.352-9.682-20.512c0-14.633,11.905-26.537,26.537-26.537h6.246c2.274,0,4.439-0.975,5.946-2.678     c1.507-1.702,2.211-3.971,1.935-6.228c-0.374-3.048-0.556-5.896-0.556-8.71c0-38.978,31.713-70.69,70.692-70.69     s70.691,31.712,70.691,70.69c0,6.166-0.789,12.215-2.343,18.081c-11.738-8.003-25.907-12.689-41.153-12.689     c-14.227,0-27.845,4.035-39.673,11.69c-7.457-2.923-15.56-4.546-24.04-4.546C58.505,336.889,31.988,359.26,25.56,389.02z      M40.569,395.043c3.816-23.93,24.601-42.275,49.591-42.275c24.989,0,45.773,18.345,49.589,42.275H40.569z M155.762,395.043     c-2.17-18.034-11.623-33.851-25.334-44.419c7.312-3.287,15.248-5.001,23.445-5.001c28.937,0,52.939,21.536,56.816,49.42H155.762z      M244.35,395.043h-17.672c-1.711-15.791-8.452-30.094-18.595-41.26c3.418-9.427,5.166-19.299,5.166-29.43     c0-47.734-38.835-86.568-86.57-86.568c-30.424,0-57.213,15.789-72.656,39.589c-0.077-1.788-0.131-3.578-0.131-5.372     c0-67.848,55.198-123.044,123.045-123.044h96.176c-0.013,0.061-0.018,0.122-0.031,0.183c-0.14,0.699-0.26,1.393-0.347,2.083     c-0.007,0.059-0.01,0.116-0.017,0.176c-0.075,0.63-0.126,1.254-0.158,1.876c-0.011,0.214-0.013,0.426-0.019,0.638     c-0.013,0.477-0.012,0.952,0.002,1.422c0.006,0.22,0.014,0.44,0.025,0.66c0.03,0.518,0.077,1.031,0.14,1.539     c0.018,0.145,0.028,0.291,0.048,0.435c0.091,0.645,0.21,1.28,0.354,1.908c0.036,0.156,0.083,0.308,0.122,0.464     c0.12,0.474,0.252,0.944,0.403,1.408c0.066,0.203,0.137,0.403,0.209,0.604c0.153,0.43,0.323,0.853,0.504,1.272     c0.078,0.18,0.151,0.362,0.234,0.54c0.271,0.581,0.56,1.155,0.885,1.713c4.459,7.662,13.455,12.057,24.681,12.057h24.213     c11.225,0,20.222-4.394,24.681-12.056c0.3-0.516,0.573-1.044,0.827-1.579c0.084-0.177,0.155-0.358,0.233-0.537     c0.161-0.365,0.319-0.732,0.458-1.104c0.08-0.215,0.151-0.434,0.226-0.652c0.117-0.346,0.23-0.694,0.33-1.047     c0.066-0.233,0.126-0.467,0.184-0.702c0.087-0.349,0.165-0.701,0.235-1.056c0.048-0.239,0.093-0.479,0.132-0.72     c0.06-0.365,0.108-0.735,0.15-1.105c0.028-0.234,0.057-0.468,0.077-0.704c0.035-0.407,0.052-0.818,0.067-1.23     c0.007-0.204,0.022-0.405,0.023-0.611c0.006-0.606-0.007-1.216-0.044-1.831c-0.001-0.013,0-0.025-0.001-0.038     c-0.039-0.631-0.105-1.267-0.189-1.906c-0.005-0.037-0.006-0.072-0.011-0.109c36.742,6.651,68.313,29.562,86.087,62.512     c-9.436,1.898-16.567,10.247-16.567,20.235v51.806c0,4.113,1.223,7.938,3.304,11.161c-15.802,7.931-27.678,22.623-31.715,40.547     c-10.586,1.027-20.44,4.569-28.978,10.008c-7.45-12.821-21.309-21.123-36.683-21.123h-49.784     c-23.388,0-42.415,19.028-42.415,42.416C234.988,378.544,238.5,387.772,244.35,395.043z M333.78,394.21     c-2.142,0.55-4.346,0.833-6.592,0.833h-49.784c-14.633,0-26.536-11.904-26.536-26.535c0-14.633,11.905-26.537,26.536-26.537     h49.784c10.531,0,19.93,6.219,24.168,15.562C342.008,367.383,335.661,380.096,333.78,394.21z M349.686,395.043     c3.816-23.93,24.601-42.275,49.59-42.275c24.99,0,45.776,18.345,49.592,42.275H349.686z M464.636,393.124     c-4.291-28.568-26.931-51.206-55.501-55.497c5.565-18.418,22.616-31.487,42.534-31.487c24.511,0,44.453,19.942,44.453,44.452     C496.121,370.508,483.052,387.558,464.636,393.124z" fill="#fff"/>
		</g>
	</g>
</g>
</svg>
